<svg width="20" height="22" viewBox="0 0 20 22" fill="none" xmlns="http://www.w3.org/2000/svg">
<path d="M15 8.66675C15 7.34067 14.4732 6.0689 13.5355 5.13121C12.5979 4.19353 11.3261 3.66675 10 3.66675C8.67392 3.66675 7.40215 4.19353 6.46447 5.13121C5.52678 6.0689 5 7.34067 5 8.66675C5 14.5001 2.5 16.1667 2.5 16.1667H17.5C17.5 16.1667 15 14.5001 15 8.66675Z" stroke="#444343" stroke-width="1.5" stroke-linecap="round" stroke-linejoin="round"/>
<path d="M11.4419 19.5C11.2954 19.7526 11.0851 19.9622 10.8321 20.1079C10.5791 20.2537 10.2922 20.3304 10.0003 20.3304C9.70828 20.3304 9.42142 20.2537 9.16841 20.1079C8.91539 19.9622 8.7051 19.7526 8.55859 19.5" stroke="#444343" stroke-width="1.5" stroke-linecap="round" stroke-linejoin="round"/>
<circle cx="14.5" cy="3.5" r="3.5" fill="#FF6161"/>
</svg>
