<svg width="16" height="16" viewBox="0 0 16 16" fill="none" xmlns="http://www.w3.org/2000/svg">
<g clip-path="url(#clip0_284_2314)">
<path d="M11.2676 5.5H11.8926C12.5556 5.5 13.1915 5.76339 13.6603 6.23223C14.1292 6.70107 14.3926 7.33696 14.3926 8C14.3926 8.66304 14.1292 9.29893 13.6603 9.76777C13.1915 10.2366 12.5556 10.5 11.8926 10.5H11.2676" stroke="#444343" stroke-linecap="round" stroke-linejoin="round"/>
<path d="M1.26758 5.5H11.2676V11.125C11.2676 11.788 11.0042 12.4239 10.5353 12.8928C10.0665 13.3616 9.43062 13.625 8.76758 13.625H3.76758C3.10454 13.625 2.46865 13.3616 1.99981 12.8928C1.53097 12.4239 1.26758 11.788 1.26758 11.125V5.5Z" stroke="#444343" stroke-linecap="round" stroke-linejoin="round"/>
<path d="M8.76758 1.125V3" stroke="#444343" stroke-linecap="round" stroke-linejoin="round"/>
<path d="M6.26758 1.125V3" stroke="#444343" stroke-linecap="round" stroke-linejoin="round"/>
<path d="M3.76758 1.125V3" stroke="#444343" stroke-linecap="round" stroke-linejoin="round"/>
</g>
<defs>
<clipPath id="clip0_284_2314">
<rect width="15" height="15" fill="white" transform="translate(0.0175781 0.5)"/>
</clipPath>
</defs>
</svg>
