<svg width="112" height="19" viewBox="0 0 112 19" fill="none" xmlns="http://www.w3.org/2000/svg">
<path fill-rule="evenodd" clip-rule="evenodd" d="M15.1959 7.93096L9.73201 11.2939V10.2529L15.1959 6.88993V7.93096ZM15.1959 12.9319L9.73201 16.2949V15.2538L15.1959 11.8909V12.9319ZM9.73201 12.7535L13.6878 10.2355V11.2765L9.73201 13.7945V12.7535ZM16.1368 3.94051L9.74724 0.296244C9.05461 -0.098748 8.20122 -0.098748 7.50879 0.296244L1.11923 3.94051C0.426596 4.33551 0 5.06548 0 5.85566L0 13.1444C0 13.9342 0.426596 14.6645 1.11923 15.0593L7.50879 18.7036C8.20122 19.0988 9.05461 19.0988 9.74724 18.7036L16.1368 15.0593C16.8294 14.6645 17.256 13.9342 17.256 13.1444L17.256 5.85566C17.256 5.06548 16.8294 4.33551 16.1368 3.94051Z" fill="#7D7D7D" fill-opacity="0.5"/>
<path fill-rule="evenodd" clip-rule="evenodd" d="M25.6889 8.71075H30.1804C30.0693 8.02514 29.2487 7.24172 27.9835 7.24172C26.9126 7.24172 25.9949 7.74539 25.6889 8.71075ZM30.3195 10.3898L31.9744 11.1032C31.4876 12.3204 29.9996 13.3277 28.0667 13.3277C25.5499 13.3277 23.7422 11.7747 23.7422 9.49437C23.7422 7.32566 25.522 5.67468 28.0529 5.67468C30.5838 5.67468 32.0994 7.32566 32.0994 9.42428V10.04H25.6194C25.8557 11.1032 26.8152 11.7328 28.0667 11.7328C29.1515 11.7328 29.9858 11.2012 30.3195 10.3898Z" fill="#7D7D7D" fill-opacity="0.5"/>
<path fill-rule="evenodd" clip-rule="evenodd" d="M38.6762 9.82995L35.923 10.1378C35.0609 10.2356 34.6158 10.4455 34.6158 10.9911C34.6158 11.5508 35.1581 11.8308 36.0619 11.8308C37.2579 11.8308 38.6762 11.313 38.6762 10.3336V9.82995ZM32.7246 11.0471C32.7246 9.68998 33.8787 8.93447 35.631 8.75253L38.6762 8.4308V8.37478C38.6762 7.75944 38.1339 7.25558 36.8545 7.25558C35.7838 7.25558 34.9078 7.73133 34.6575 8.37478L32.9749 7.80122C33.4338 6.51413 35.0469 5.67468 36.9242 5.67468C39.2185 5.67468 40.5535 6.61213 40.5535 8.40269V11.299C40.5535 11.7048 40.7343 11.8866 41.5686 11.7048V13.1739C39.9694 13.4956 39.1768 12.9779 38.871 12.2643C38.2034 12.8939 37.1048 13.3277 35.7978 13.3277C34.0457 13.3277 32.7246 12.5302 32.7246 11.0471Z" fill="#7D7D7D" fill-opacity="0.5"/>
<path fill-rule="evenodd" clip-rule="evenodd" d="M46.2124 7.24152C44.8912 7.24152 43.7789 8.02514 43.7789 9.3542C43.7789 10.6973 44.8912 11.4809 46.2124 11.4809C47.5473 11.4809 48.6876 10.6835 48.6876 9.38211V9.32628C48.6876 8.039 47.5473 7.24152 46.2124 7.24152ZM46.0455 15.8181C44.0849 15.8181 42.5274 15.1187 41.9294 13.8874L43.4729 12.9359C43.8483 13.7755 44.8218 14.2792 46.0178 14.2792C47.3944 14.2792 48.5902 13.6075 48.5902 12.3204V12.0404C48.0758 12.5722 47.1858 13.0618 45.8647 13.0618C43.3617 13.0618 41.8877 11.3829 41.8877 9.3542C41.8877 7.36763 43.3617 5.67468 45.8647 5.67468C47.1996 5.67468 48.0758 6.15024 48.5902 6.66796V5.81446L50.5371 5.81446V12.1384C50.5371 14.4331 48.6042 15.8181 46.0455 15.8181Z" fill="#7D7D7D" fill-opacity="0.5"/>
<path fill-rule="evenodd" clip-rule="evenodd" d="M53.557 8.71075H58.0486C57.9374 8.02514 57.1169 7.24172 55.8516 7.24172C54.7808 7.24172 53.863 7.74539 53.557 8.71075ZM58.1877 10.3898L59.8424 11.1032C59.3556 12.3204 57.8678 13.3277 55.9348 13.3277C53.4181 13.3277 51.6104 11.7747 51.6104 9.49437C51.6104 7.32566 53.3902 5.67468 55.9211 5.67468C58.4518 5.67468 59.9675 7.32566 59.9675 9.42428V10.04L53.4876 10.04C53.7239 11.1032 54.6834 11.7328 55.9348 11.7328C57.0197 11.7328 57.854 11.2012 58.1877 10.3898Z" fill="#7D7D7D" fill-opacity="0.5"/>
<path fill-rule="evenodd" clip-rule="evenodd" d="M66.5438 7.80127C66.2101 7.71713 66.057 7.68921 65.6678 7.68921C64.0546 7.68921 62.984 8.34691 62.984 10.0399V13.1739H61.0371V5.81451H62.984V7.11565C63.6097 6.15029 64.5415 5.77234 65.7372 5.77234C66.071 5.77234 66.3352 5.81451 66.5438 5.87034V7.80127Z" fill="#7D7D7D" fill-opacity="0.5"/>
<path fill-rule="evenodd" clip-rule="evenodd" d="M74.1361 5.81396L75.8881 10.7948L77.6681 5.81396H79.6705L76.7919 13.1732H75.0398L73.2461 8.27628L71.4521 13.1732H69.7002L66.8076 5.81396H68.8796L70.7014 10.7948L72.4395 5.81396H74.1361Z" fill="#7D7D7D" fill-opacity="0.5"/>
<path fill-rule="evenodd" clip-rule="evenodd" d="M86.234 9.49417C86.234 8.10889 85.1634 7.31141 83.8562 7.31141C82.5211 7.31141 81.4644 8.10889 81.4644 9.49417C81.4644 10.8933 82.5211 11.6908 83.8562 11.6908C85.1634 11.6908 86.234 10.8933 86.234 9.49417ZM88.1113 9.49417C88.1113 11.8027 86.234 13.3277 83.8562 13.3277C81.4644 13.3277 79.5732 11.8027 79.5732 9.49417C79.5732 7.19955 81.4644 5.67468 83.8562 5.67468C86.234 5.67468 88.1113 7.19955 88.1113 9.49417Z" fill="#7D7D7D" fill-opacity="0.5"/>
<path fill-rule="evenodd" clip-rule="evenodd" d="M94.7011 7.80127C94.3671 7.71713 94.2142 7.68921 93.8248 7.68921C92.2119 7.68921 91.1412 8.34691 91.1412 10.0399V13.1739H89.1943V5.81451H91.1412V7.11565C91.7668 6.15029 92.6985 5.77234 93.8945 5.77234C94.2282 5.77234 94.4923 5.81451 94.7011 5.87034V7.80127Z" fill="#7D7D7D" fill-opacity="0.5"/>
<path fill-rule="evenodd" clip-rule="evenodd" d="M97.5523 9.214L101.502 5.81424L104.185 5.81424L100.403 8.97603L104.297 13.1735H101.849L99.0124 10.1514L97.5523 11.3686V13.1735H95.6055V3.12781L97.5523 3.12781V9.214Z" fill="#7D7D7D" fill-opacity="0.5"/>
<path fill-rule="evenodd" clip-rule="evenodd" d="M105.103 10.5017C105.923 11.3972 107.022 11.8028 108.287 11.8028C109.358 11.8028 110.067 11.5649 110.067 11.0192C110.067 10.4597 109.4 10.4597 107.717 10.2499C105.881 10.0119 104.421 9.69017 104.421 8.12314C104.421 6.66796 105.812 5.67468 108.037 5.67468C109.775 5.67468 111.138 6.27616 111.819 7.05977L110.707 8.24906C110.095 7.5775 109.121 7.18569 107.939 7.18569C106.855 7.18569 106.326 7.47969 106.326 7.91328C106.326 8.37478 106.841 8.431 108.426 8.62681C110.345 8.85072 112 9.13048 112 10.8232C112 12.5023 110.289 13.3279 108.204 13.3279C106.438 13.3279 104.825 12.7682 103.99 11.7888L105.103 10.5017Z" fill="#7D7D7D" fill-opacity="0.5"/>
</svg>
