<svg width="48" height="21" viewBox="0 0 48 21" fill="none" xmlns="http://www.w3.org/2000/svg">
<path d="M0.469727 20.2112V1.111H8.53906C9.92612 1.111 11.0695 1.38782 11.9692 1.94144C12.8689 2.49507 13.5344 3.25631 13.9655 4.22516C14.3966 5.17424 14.6121 6.26172 14.6121 7.48761C14.6121 9.38576 14.0498 10.9082 12.9252 12.055C11.8193 13.2018 10.3197 13.7752 8.42659 13.7752H3.53439V20.2112H0.469727ZM3.53439 11.2246H7.86427C9.08264 11.2246 10.0011 10.8885 10.6197 10.2162C11.2382 9.54394 11.5475 8.63441 11.5475 7.48761C11.5475 6.26172 11.2476 5.31264 10.6478 4.64038C10.0667 3.96812 9.18573 3.63199 8.00485 3.63199H3.53439V11.2246Z" fill="#1C1C1C"/>
<path d="M18.876 20.1922C17.7889 20.1922 16.9641 19.9154 16.4018 19.3618C15.8395 18.7884 15.5583 17.8492 15.5583 16.5442V0.9646H18.623V16.2476C18.623 16.8013 18.7167 17.1769 18.9041 17.3747C19.0916 17.5724 19.7476 17.6712 19.7476 17.6712L20.0007 20.1033C20.0007 20.1033 19.3071 20.1922 18.876 20.1922Z" fill="#1C1C1C"/>
<path d="M25.2068 20.3487C24.3634 20.3487 23.5761 20.1905 22.8451 19.8742C22.1328 19.5578 21.5611 19.0833 21.13 18.4506C20.6989 17.7981 20.4833 16.9973 20.4833 16.0482C20.4833 14.7037 20.9144 13.6261 21.7767 12.8154C22.6576 11.985 24.0072 11.5698 25.8254 11.5698H30.0991V10.9469C30.0991 10.2747 29.996 9.74082 29.7898 9.34537C29.6023 8.94992 29.2462 8.66322 28.7214 8.48527C28.2153 8.30732 27.4655 8.21834 26.4721 8.21834C24.8976 8.21834 23.4262 8.4655 22.0578 8.95981V6.55746C22.6576 6.30042 23.3887 6.09281 24.2509 5.93463C25.1131 5.77645 26.041 5.69736 27.0344 5.69736C28.9838 5.69736 30.4646 6.11258 31.4767 6.94302C32.5077 7.77346 33.0231 9.12787 33.0231 11.0063V20.0521H30.4083L30.2115 18.6285C29.6679 19.1821 28.9931 19.6073 28.1872 19.9038C27.3999 20.2004 26.4065 20.3487 25.2068 20.3487ZM26.0222 18.0353C26.9407 18.0353 27.7373 17.8772 28.4121 17.5608C29.1056 17.2247 29.6679 16.7798 30.0991 16.2262V13.7645H25.8816C24.9819 13.7645 24.3259 13.9523 23.9135 14.328C23.5199 14.6839 23.3231 15.2375 23.3231 15.9889C23.3231 16.7205 23.5574 17.2444 24.026 17.5608C24.4946 17.8772 25.16 18.0353 26.0222 18.0353Z" fill="#1C1C1C"/>
<path d="M34.3279 20.2112V6.15297H37.1395L37.2801 7.6359C37.8799 7.14159 38.5922 6.72637 39.4169 6.39024C40.2604 6.03434 41.1882 5.85638 42.2004 5.85638C43.9249 5.85638 45.1807 6.28149 45.968 7.1317C46.7552 7.98192 47.1489 9.30667 47.1489 11.106V20.2112H44.1123V11.2543C44.1123 10.1668 43.8968 9.40553 43.4657 8.97054C43.0533 8.53555 42.266 8.31805 41.1039 8.31805C40.4104 8.31805 39.7262 8.46634 39.0514 8.76293C38.3954 9.05951 37.8424 9.44508 37.3926 9.91961V20.2112H34.3279Z" fill="#1C1C1C"/>
</svg>
