<svg width="23" height="20" viewBox="0 0 23 20" fill="none" xmlns="http://www.w3.org/2000/svg">
<path d="M23 2.37575C22.1542 2.76628 21.2337 3.04735 20.2857 3.15682C21.27 2.53089 22.0071 1.54202 22.3587 0.375752C21.4351 0.963885 20.4232 1.37629 19.368 1.59469C18.927 1.09003 18.3936 0.687999 17.801 0.413643C17.2085 0.139287 16.5695 -0.00151415 15.9239 1.22793e-05C13.3119 1.22793e-05 11.2112 2.26628 11.2112 5.04735C11.2112 5.43788 11.2554 5.82841 11.3272 6.20415C7.41606 5.98522 3.92777 3.98522 1.6087 0.923089C1.18614 1.69562 0.964705 2.57524 0.967432 3.47042C0.967432 5.2219 1.79942 6.76628 3.06814 7.67456C2.32047 7.64305 1.5903 7.42308 0.937027 7.03255V7.09468C0.937027 9.54734 2.55678 11.5799 4.71554 12.0473C4.31021 12.16 3.89324 12.2177 3.47446 12.2189C3.16765 12.2189 2.87742 12.1864 2.58442 12.142C3.18147 14.142 4.92008 15.5947 6.99039 15.642C5.37063 17 3.34179 17.7988 1.13881 17.7988C0.743541 17.7988 0.37868 17.784 0 17.7367C2.08965 19.1716 4.56904 20 7.23915 20C15.9073 20 20.6505 12.3136 20.6505 5.64202C20.6505 5.42309 20.6505 5.20415 20.6367 4.98522C21.5544 4.26628 22.3587 3.37575 23 2.37575Z" fill="white"/>
</svg>
