<svg width="100" height="38" viewBox="0 0 100 38" fill="none" xmlns="http://www.w3.org/2000/svg">
<path d="M82.4415 28.6303V9.80151H85.6284V28.6303H82.4415Z" fill="white"/>
<path d="M91.2814 28.6303V12.2867H86.7204V9.80151H99V12.2867H94.4683V28.6303H91.2814Z" fill="white"/>
<path d="M33.0499 28.6239V9.94566H41.3739C42.8047 9.94566 43.9842 10.2164 44.9123 10.7578C45.8404 11.2992 46.5269 12.0436 46.9716 12.991C47.4163 13.9191 47.6387 14.9826 47.6387 16.1814C47.6387 18.0376 47.0586 19.5265 45.8984 20.6479C44.7576 21.7694 43.2108 22.3301 41.2579 22.3301H36.2113V28.6239H33.0499ZM36.2113 19.8358H40.6778C41.9346 19.8358 42.8821 19.5071 43.5202 18.8497C44.1582 18.1923 44.4773 17.3029 44.4773 16.1814C44.4773 14.9826 44.1679 14.0545 43.5492 13.3971C42.9498 12.7397 42.041 12.411 40.8228 12.411H36.2113V19.8358Z" fill="white"/>
<path d="M52.0371 28.6054C50.9156 28.6054 50.0649 28.3347 49.4848 27.7933C48.9047 27.2325 48.6147 26.3141 48.6147 25.0379V9.80249H51.7761V24.7479C51.7761 25.2893 51.8727 25.6567 52.0661 25.85C52.2595 26.0434 52.9362 26.1401 52.9362 26.1401L53.1972 28.5184C53.1972 28.5184 52.4818 28.6054 52.0371 28.6054Z" fill="white"/>
<path d="M58.5677 28.7584C57.6976 28.7584 56.8855 28.6037 56.1314 28.2943C55.3967 27.985 54.8069 27.5209 54.3622 26.9022C53.9175 26.2641 53.6951 25.481 53.6951 24.5529C53.6951 23.2381 54.1399 22.1843 55.0293 21.3915C55.9381 20.5794 57.3302 20.1734 59.2058 20.1734H63.6143V19.5643C63.6143 18.9069 63.508 18.3848 63.2953 17.9981C63.1019 17.6114 62.7345 17.331 62.1931 17.157C61.6711 16.983 60.8977 16.896 59.8729 16.896C58.2487 16.896 56.7308 17.1377 55.3193 17.6211V15.2718C55.9381 15.0204 56.6922 14.8174 57.5816 14.6627C58.471 14.508 59.4281 14.4307 60.4529 14.4307C62.4638 14.4307 63.9914 14.8367 65.0355 15.6488C66.0989 16.4609 66.6307 17.7854 66.6307 19.6223V28.4684H63.9333L63.7303 27.0762C63.1696 27.6176 62.4735 28.0333 61.6421 28.3233C60.83 28.6134 59.8052 28.7584 58.5677 28.7584ZM59.4088 26.4961C60.3563 26.4961 61.178 26.3414 61.8741 26.0321C62.5895 25.7034 63.1696 25.2683 63.6143 24.7269V22.3196H59.2638C58.3357 22.3196 57.6589 22.5033 57.2336 22.8707C56.8275 23.2187 56.6245 23.7601 56.6245 24.4949C56.6245 25.2103 56.8662 25.7227 57.3496 26.0321C57.833 26.3414 58.5194 26.4961 59.4088 26.4961Z" fill="white"/>
<path d="M67.9766 28.6239V14.8762H70.877L71.022 16.3264C71.6407 15.843 72.3755 15.437 73.2263 15.1083C74.0964 14.7602 75.0535 14.5862 76.0976 14.5862C77.8765 14.5862 79.172 15.0019 79.984 15.8334C80.7961 16.6648 81.2022 17.9603 81.2022 19.7198V28.6239H78.0698V19.8648C78.0698 18.8014 77.8475 18.057 77.4027 17.6316C76.9774 17.2062 76.1653 16.9935 74.9665 16.9935C74.251 16.9935 73.5453 17.1385 72.8492 17.4285C72.1725 17.7186 71.6021 18.0956 71.138 18.5597V28.6239H67.9766Z" fill="white"/>
<path d="M22.1458 14.7038C22.1458 19.4368 18.3089 23.2737 13.5759 23.2737C8.84282 23.2737 5.00593 19.4368 5.00593 14.7038C5.00593 9.97075 8.84282 6.13386 13.5759 6.13386C18.3089 6.13386 22.1458 9.97075 22.1458 14.7038Z" fill="url(#paint0_linear_36_107)" stroke="white" stroke-width="0.186179"/>
<path d="M0.0930894 14.876C0.0930894 8.23811 5.04821 2.90339 11.1851 2.90339C16.5379 2.90339 20.931 7.21624 21.944 12.7081C20.9677 9.97352 18.4754 7.72913 15.3723 7.72913C11.414 7.72913 8.22404 11.1807 8.22404 15.4329V26.5086V26.5705C8.22404 31.4423 4.58131 35.3948 0.0930894 35.4488V15.4948V15.4933V15.4919V15.4904V15.489V15.4875V15.4861V15.4847V15.4832V15.4818V15.4803V15.4789V15.4775V15.476V15.4746V15.4732V15.4718V15.4703V15.4689V15.4675V15.4661V15.4646V15.4632V15.4618V15.4604V15.459V15.4575V15.4561V15.4547V15.4533V15.4519V15.4505V15.4491V15.4477V15.4463V15.4449V15.4435V15.4421V15.4407V15.4393V15.4379V15.4365V15.4351V15.4337V15.4323V15.4309V15.4295V15.4281V15.4268V15.4254V15.424V15.4226V15.4212V15.4198V15.4185V15.4171V15.4157V15.4143V15.413V15.4116V15.4102V15.4088V15.4075V15.4061V15.4047V15.4034V15.402V15.4007V15.3993V15.3979V15.3966V15.3952V15.3939V15.3925V15.3912V15.3898V15.3885V15.3871V15.3858V15.3844V15.3831V15.3817V15.3804V15.379V15.3777V15.3763V15.375V15.3737V15.3723V15.371V15.3697V15.3683V15.367V15.3657V15.3643V15.363V15.3617V15.3604V15.359V15.3577V15.3564V15.3551V15.3537V15.3524V15.3511V15.3498V15.3485V15.3472V15.3458V15.3445V15.3432V15.3419V15.3406V15.3393V15.338V15.3367V15.3354V15.3341V15.3328V15.3315V15.3302V15.3289V15.3276V15.3263V15.325V15.3237V15.3224V15.3211V15.3198V15.3185V15.3172V15.3159V15.3146V15.3133V15.3121V15.3108V15.3095V15.3082V15.3069V15.3056V15.3044V15.3031V15.3018V15.3005V15.2993V15.298V15.2967V15.2954V15.2942V15.2929V15.2916V15.2904V15.2891V15.2878V15.2866V15.2853V15.284V15.2828V15.2815V15.2802V15.279V15.2777V15.2765V15.2752V15.274V15.2727V15.2715V15.2702V15.2689V15.2677V15.2664V15.2652V15.2639V15.2627V15.2615V15.2602V15.259V15.2577V15.2565V15.2552V15.254V15.2528V15.2515V15.2503V15.249V15.2478V15.2466V15.2453V15.2441V15.2429V15.2416V15.2404V15.2392V15.238V15.2367V15.2355V15.2343V15.233V15.2318V15.2306V15.2294V15.2282V15.2269V15.2257V15.2245V15.2233V15.2221V15.2208V15.2196V15.2184V15.2172V15.216V15.2148V15.2136V15.2123V15.2111V15.2099V15.2087V15.2075V15.2063V15.2051V15.2039V15.2027V15.2015V15.2003V15.1991V15.1979V15.1967V15.1955V15.1943V15.1931V15.1919V15.1907V15.1895V15.1883V15.1871V15.1859V15.1847V15.1835V15.1823V15.1811V15.18V15.1788V15.1776V15.1764V15.1752V15.174V15.1728V15.1716V15.1705V15.1693V15.1681V15.1669V15.1657V15.1646V15.1634V15.1622V15.161V15.1598V15.1587V15.1575V15.1563V15.1551V15.154V15.1528V15.1516V15.1505V15.1493V15.1481V15.1469V15.1458V15.1446V15.1434V15.1423V15.1411V15.1399V15.1388V15.1376V15.1364V15.1353V15.1341V15.133V15.1318V15.1306V15.1295V15.1283V15.1272V15.126V15.1248V15.1237V15.1225V15.1214V15.1202V15.1191V15.1179V15.1168V15.1156V15.1145V15.1133V15.1122V15.111V15.1099V15.1087V15.1076V15.1064V15.1053V15.1041V15.103V15.1018V15.1007V15.0995V15.0984V15.0972V15.0961V15.095V15.0938V15.0927V15.0915V15.0904V15.0893V15.0881V15.087V15.0858V15.0847V15.0836V15.0824V15.0813V15.0802V15.079V15.0779V15.0768V15.0756V15.0745V15.0734V15.0722V15.0711V15.07V15.0688V15.0677V15.0666V15.0654V15.0643V15.0632V15.0621V15.0609V15.0598V15.0587V15.0576V15.0564V15.0553V15.0542V15.0531V15.0519V15.0508V15.0497V15.0486V15.0475V15.0463V15.0452V15.0441V15.043V15.0418V15.0407V15.0396V15.0385V15.0374V15.0363V15.0351V15.034V15.0329V15.0318V15.0307V15.0296V15.0284V15.0273V15.0262V15.0251V15.024V15.0229V15.0218V15.0207V15.0195V15.0184V15.0173V15.0162V15.0151V15.014V15.0129V15.0118V15.0107V15.0096V15.0084V15.0073V15.0062V15.0051V15.004V15.0029V15.0018V15.0007V14.9996V14.9985V14.9974V14.9963V14.9952V14.9941V14.993V14.9919V14.9908V14.9897V14.9886V14.9875V14.9864V14.9853V14.9842V14.983V14.9819V14.9808V14.9797V14.9786V14.9775V14.9764V14.9753V14.9743V14.9732V14.9721V14.971V14.9699V14.9688V14.9677V14.9666V14.9655V14.9644V14.9633V14.9622V14.9611V14.96V14.9589V14.9578V14.9567V14.9556V14.9545V14.9534V14.9523V14.9512V14.9501V14.949V14.9479V14.9468V14.9458V14.9447V14.9436V14.9425V14.9414V14.9403V14.9392V14.9381V14.937V14.9359V14.9348V14.9337V14.9326V14.9316V14.9305V14.9294V14.9283V14.9272V14.9261V14.925V14.9239V14.9228V14.9217V14.9207V14.9196V14.9185V14.9174V14.9163V14.9152V14.9141V14.913V14.9119V14.9108V14.9098V14.9087V14.9076V14.9065V14.9054V14.9043V14.9032V14.9021V14.901V14.9V14.8989V14.8978V14.8967V14.8956V14.8945V14.8934V14.8923V14.8913V14.8902V14.8891V14.888V14.8869V14.8858V14.8847V14.8836V14.8826V14.8815V14.8804V14.8793V14.8782V14.8771V14.876Z" fill="url(#paint1_linear_36_107)" stroke="white" stroke-width="0.186179"/>
<defs>
<linearGradient id="paint0_linear_36_107" x1="16.6517" y1="24.1982" x2="4.96774" y2="9.05421" gradientUnits="userSpaceOnUse">
<stop stop-color="white"/>
<stop offset="1" stop-color="#8DB8FE"/>
</linearGradient>
<linearGradient id="paint1_linear_36_107" x1="12.4127" y1="2.93777" x2="-6.86916" y2="34.2002" gradientUnits="userSpaceOnUse">
<stop stop-color="white"/>
<stop offset="1" stop-color="#8DB8FE"/>
</linearGradient>
</defs>
</svg>
