<svg width="23" height="23" viewBox="0 0 23 23" fill="none" xmlns="http://www.w3.org/2000/svg">
<path fill-rule="evenodd" clip-rule="evenodd" d="M18.7 0H4.3C1.9 0 0 1.9 0 4.3V18.7C0 21.1 1.9 23 4.3 23H18.7C21.1 23 23 21.1 23 18.7V4.3C23 1.9 21.1 0 18.7 0ZM5.4 17.5V9.4H8.1V17.5H5.4ZM6.7 8.3C5.8 8.3 5.2 7.7 5.2 6.9C5.2 6.1 5.8 5.5 6.7 5.5C7.6 5.5 8.2 6.1 8.2 6.9C8.3 7.7 7.7 8.3 6.7 8.3ZM17.8 17.5H15.1V13.1C15.1 12 14.7 11.3 13.7 11.3C13 11.3 12.5 11.8 12.3 12.3C12.2 12.5 12.2 12.7 12.2 13V17.5H9.6C9.6 17.5 9.6 10.1 9.6 9.4H12.3V10.6C12.7 10 13.3 9.3 14.7 9.3C16.5 9.3 17.8 10.5 17.8 13V17.5Z" fill="#7D7D7D" fill-opacity="0.5"/>
</svg>
