<svg width="23" height="23" viewBox="0 0 23 23" fill="none" xmlns="http://www.w3.org/2000/svg">
<path fill-rule="evenodd" clip-rule="evenodd" d="M15.1 4.59961C13.9 4.59961 12.6 4.59961 11.4 4.59961C10.3 4.59961 9.29997 4.59961 8.19997 4.59961C7.99997 4.59961 7.69998 4.59961 7.49998 4.59961C5.69998 4.89961 4.59998 6.29961 4.59998 8.09961C4.59998 10.1996 4.59998 12.3996 4.59998 14.4996C4.59998 14.6996 4.59998 14.9996 4.59998 15.1996C4.89998 16.8996 6.29998 18.0996 8.09998 18.0996C10.3 18.0996 12.5 18.0996 14.7 18.0996C14.9 18.0996 15.2 18.0996 15.4 18.0996C17 17.8996 18.2 16.3996 18.2 14.7996C18.2 12.4996 18.2 10.1996 18.2 7.89961C18.2 6.19961 16.7 4.69961 15.1 4.59961ZM11.4 15.3996C9.09997 15.3996 7.29998 13.5996 7.29998 11.2996C7.29998 9.09961 9.19997 7.19961 11.4 7.19961C13.6 7.19961 15.6 8.99961 15.6 11.2996C15.6 13.5996 13.7 15.3996 11.4 15.3996ZM15.8 7.89961C15.3 7.89961 14.8 7.49961 14.8 6.89961C14.8 6.39961 15.2 5.89961 15.8 5.89961C16.3 5.89961 16.8 6.29961 16.8 6.89961C16.8 7.49961 16.4 7.89961 15.8 7.89961Z" fill="#7D7D7D" fill-opacity="0.5"/>
<path fill-rule="evenodd" clip-rule="evenodd" d="M18.6 0H4.3C1.9 0 0 1.9 0 4.3V18.7C0 21.1 1.9 23 4.3 23H18.6C21 23 22.9 21.1 22.9 18.7V4.3C22.9 1.9 21 0 18.6 0ZM19.8 14.7C19.8 17.1 18 19.2 15.6 19.5C15.3 19.5 14.9 19.6 14.6 19.6C12.4 19.6 10.3 19.6 8.1 19.6C6.9 19.6 5.7 19.2 4.8 18.4C3.6 17.4 3 16.1 3 14.5C3 13.4 3 12.3 3 11.3C3 10.1 3 8.9 3 7.7C3.1 5.7 4.4 4 6.3 3.3C6.8 3.1 7.4 3 8 3C10.2 3 12.4 3 14.7 3C17.2 3 19.3 4.7 19.7 7.2C19.7 7.4 19.8 7.7 19.8 7.9C19.8 10.2 19.8 12.4 19.8 14.7Z" fill="#7D7D7D" fill-opacity="0.5"/>
<path fill-rule="evenodd" clip-rule="evenodd" d="M11.4 8.7002C9.90001 8.7002 8.70001 9.9002 8.70001 11.3002C8.70001 12.7002 9.90001 13.9002 11.4 13.9002C12.9 13.9002 14 12.7002 14 11.3002C14.1 9.8002 12.9 8.7002 11.4 8.7002Z" fill="#7D7D7D" fill-opacity="0.5"/>
</svg>
