<svg width="88" height="26" viewBox="0 0 88 26" fill="none" xmlns="http://www.w3.org/2000/svg">
<path d="M65.7838 25.0291V0.114258H70.0007V25.0291H65.7838Z" fill="#1C1C1C"/>
<path d="M77.481 25.0291V3.40271H71.4458V0.114258H87.6946V3.40271H81.698V25.0291H77.481Z" fill="#1C1C1C"/>
<path d="M0.427368 25.0203V0.304683H11.442C13.3353 0.304683 14.896 0.662879 16.1241 1.37928C17.3522 2.09567 18.2605 3.08072 18.849 4.33441C19.4374 5.56252 19.7317 6.96972 19.7317 8.55603C19.7317 11.0122 18.9641 12.9823 17.429 14.4663C15.9194 15.9503 13.8726 16.6922 11.2884 16.6922H4.61061V25.0203H0.427368ZM4.61061 13.3917H10.5209C12.1839 13.3917 13.4376 12.9567 14.282 12.0868C15.1263 11.2169 15.5484 10.04 15.5484 8.55603C15.5484 6.96972 15.1391 5.74162 14.3203 4.87171C13.5272 4.0018 12.3247 3.56684 10.7128 3.56684H4.61061V13.3917Z" fill="#1C1C1C"/>
<path d="M25.5518 24.9958C24.0679 24.9958 22.9421 24.6376 22.1745 23.9213C21.407 23.1793 21.0232 21.964 21.0232 20.2753V0.115234H25.2064V19.8915C25.2064 20.6079 25.3344 21.094 25.5902 21.3499C25.8461 21.6058 26.7416 21.7337 26.7416 21.7337L27.087 24.8807C27.087 24.8807 26.1403 24.9958 25.5518 24.9958Z" fill="#1C1C1C"/>
<path d="M34.1934 25.1983C33.042 25.1983 31.9674 24.9937 30.9696 24.5843C29.9973 24.1749 29.217 23.5609 28.6285 22.7421C28.0401 21.8978 27.7458 20.8616 27.7458 19.6335C27.7458 17.8937 28.3343 16.4993 29.5112 15.4502C30.7137 14.3756 32.5559 13.8384 35.0377 13.8384H40.8712V13.0324C40.8712 12.1625 40.7305 11.4717 40.449 10.96C40.1932 10.4483 39.7071 10.0773 38.9907 9.847C38.2999 9.61673 37.2764 9.5016 35.9204 9.5016C33.7712 9.5016 31.7628 9.82142 29.895 10.4611V7.35241C30.7137 7.0198 31.7116 6.75115 32.8885 6.54647C34.0655 6.34178 35.3319 6.23944 36.688 6.23944C39.3489 6.23944 41.3701 6.77674 42.7518 7.85133C44.159 8.92592 44.8626 10.6785 44.8626 13.1092V24.8146H41.2934L41.0247 22.9724C40.2827 23.6888 39.3617 24.2389 38.2615 24.6227C37.1869 25.0065 35.8309 25.1983 34.1934 25.1983ZM35.3064 22.2048C36.56 22.2048 37.6474 22.0001 38.5685 21.5908C39.5152 21.1558 40.2827 20.5802 40.8712 19.8638V16.6784H35.1145C33.8864 16.6784 32.9909 16.9214 32.428 17.4075C31.8907 17.8681 31.622 18.5845 31.622 19.5567C31.622 20.5034 31.9419 21.1814 32.5815 21.5908C33.2211 22.0001 34.1294 22.2048 35.3064 22.2048Z" fill="#1C1C1C"/>
<path d="M46.6436 25.0203V6.829H50.4814L50.6733 8.74792C51.492 8.10828 52.4643 7.57098 53.5901 7.13603C54.7414 6.67549 56.0079 6.44522 57.3895 6.44522C59.7434 6.44522 61.4576 6.99531 62.5322 8.09549C63.6068 9.19567 64.1441 10.9099 64.1441 13.2382V25.0203H59.9992V13.4301C59.9992 12.0229 59.705 11.0378 59.1165 10.4749C58.5537 9.91206 57.4791 9.63062 55.8928 9.63062C54.9461 9.63062 54.0122 9.82251 53.0911 10.2063C52.1957 10.5901 51.4409 11.089 50.8268 11.7031V25.0203H46.6436Z" fill="#1C1C1C"/>
</svg>
