<svg width="36" height="36" viewBox="0 0 36 36" fill="none" xmlns="http://www.w3.org/2000/svg">
<path d="M13.9418 6.4952C10.9309 7.09405 8.81455 9.39731 7.59273 13.405C6.98182 15.3858 6.67636 17.3436 6.67636 19.2783C6.67636 19.5086 6.67636 19.7159 6.67636 19.9002C6.72 20.0384 6.76364 20.3839 6.80727 20.9367H13.9418V36H0V22.1113C0 15.2937 1.28727 10.0422 3.86182 6.35701C6.43636 2.67179 9.79636 0.552783 13.9418 0V6.4952ZM36 6.4952C33.6 6.90979 31.7673 8.33781 30.5018 10.7793C29.28 13.2207 28.6691 16.0307 28.6691 19.2092C28.6691 19.4856 28.6691 19.762 28.6691 20.0384C28.7127 20.3148 28.7782 20.6142 28.8655 20.9367H36V36H21.9927V22.1113C21.9927 16.6296 23.0836 11.7466 25.2655 7.46257C27.4473 3.13244 31.0255 0.644914 36 0V6.4952Z" fill="url(#paint0_linear_1_173)"/>
<defs>
<linearGradient id="paint0_linear_1_173" x1="-1.10204" y1="38.1" x2="45.3389" y2="-5.21853" gradientUnits="userSpaceOnUse">
<stop stop-color="#0F58B7"/>
<stop offset="1" stop-color="#62D9FF"/>
</linearGradient>
</defs>
</svg>
