<svg width="66" height="74" viewBox="0 0 66 74" fill="none" xmlns="http://www.w3.org/2000/svg">
<g filter="url(#filter0_ddd_3_35)">
<rect x="18" y="17.0212" width="30" height="30" rx="6" fill="url(#paint0_linear_3_35)"/>
<rect x="17.55" y="16.5712" width="30.9" height="30.9" rx="6.45" stroke="black" stroke-opacity="0.03" stroke-width="0.9"/>
</g>
<path d="M33 31.4758C34.9204 31.4758 36.4773 29.919 36.4773 27.9985C36.4773 26.0781 34.9204 24.5212 33 24.5212C31.0796 24.5212 29.5227 26.0781 29.5227 27.9985C29.5227 29.919 31.0796 31.4758 33 31.4758Z" fill="white"/>
<path d="M26.25 39.5228C26.25 35.5689 29.2721 32.7712 33 32.7712C36.7279 32.7712 39.75 35.5689 39.75 39.5228H26.25Z" fill="white"/>
<defs>
<filter id="filter0_ddd_3_35" x="0.207668" y="0.918261" width="65.5847" height="72.3413" filterUnits="userSpaceOnUse" color-interpolation-filters="sRGB">
<feFlood flood-opacity="0" result="BackgroundImageFix"/>
<feColorMatrix in="SourceAlpha" type="matrix" values="0 0 0 0 0 0 0 0 0 0 0 0 0 0 0 0 0 0 127 0" result="hardAlpha"/>
<feOffset dy="0.844615"/>
<feGaussianBlur stdDeviation="1.68923"/>
<feColorMatrix type="matrix" values="0 0 0 0 0.376471 0 0 0 0 0.501961 0 0 0 0 0.6 0 0 0 0.06 0"/>
<feBlend mode="normal" in2="BackgroundImageFix" result="effect1_dropShadow_3_35"/>
<feColorMatrix in="SourceAlpha" type="matrix" values="0 0 0 0 0 0 0 0 0 0 0 0 0 0 0 0 0 0 127 0" result="hardAlpha"/>
<feOffset dy="1.68923"/>
<feGaussianBlur stdDeviation="8.44615"/>
<feColorMatrix type="matrix" values="0 0 0 0 0.376471 0 0 0 0 0.501961 0 0 0 0 0.6 0 0 0 0.04 0"/>
<feBlend mode="normal" in2="effect1_dropShadow_3_35" result="effect2_dropShadow_3_35"/>
<feColorMatrix in="SourceAlpha" type="matrix" values="0 0 0 0 0 0 0 0 0 0 0 0 0 0 0 0 0 0 127 0" result="hardAlpha"/>
<feOffset dy="8.44615"/>
<feGaussianBlur stdDeviation="8.44615"/>
<feColorMatrix type="matrix" values="0 0 0 0 0.375 0 0 0 0 0.503572 0 0 0 0 0.6 0 0 0 0.1 0"/>
<feBlend mode="normal" in2="effect2_dropShadow_3_35" result="effect3_dropShadow_3_35"/>
<feBlend mode="normal" in="SourceGraphic" in2="effect3_dropShadow_3_35" result="shape"/>
</filter>
<linearGradient id="paint0_linear_3_35" x1="17.5408" y1="47.0212" x2="58.4198" y2="8.58736" gradientUnits="userSpaceOnUse">
<stop stop-color="#0F99B7"/>
<stop offset="1" stop-color="#69ECDC"/>
</linearGradient>
</defs>
</svg>
